<?xml version="1.0" standalone="no"?>
<!DOCTYPE svg PUBLIC "-//W3C//DTD SVG 20010904//EN"
 "http://www.w3.org/TR/2001/REC-SVG-20010904/DTD/svg10.dtd">
<svg version="1.0" xmlns="http://www.w3.org/2000/svg"
 width="492.000000pt" height="492.000000pt" viewBox="0 0 492.000000 492.000000"
 preserveAspectRatio="xMidYMid meet">
<metadata>
Created by potrace 1.14, written by Peter Selinger 2001-2017
</metadata>
<g transform="translate(0.000000,492.000000) scale(0.100000,-0.100000)"
fill="#000000" stroke="none">
<path d="M2280 4914 c-405 -48 -619 -107 -915 -254 -653 -323 -1131 -924
-1298 -1635 -128 -542 -65 -1126 174 -1620 73 -152 115 -220 122 -201 6 14 81
16 779 18 l773 3 417 1445 c229 795 417 1452 418 1461 0 9 -16 27 -35 40 -49
34 -83 86 -96 150 -19 92 16 175 99 233 59 42 159 49 227 16 162 -78 179 -293
32 -398 -39 -28 -60 -35 -110 -39 l-63 -5 -414 -1437 c-227 -790 -420 -1457
-428 -1483 l-14 -48 -784 0 c-431 0 -784 -3 -784 -6 0 -3 29 -47 64 -98 380
-542 944 -898 1613 -1018 112 -19 162 -22 393 -23 289 0 377 9 601 65 413 104
799 317 1100 607 398 384 645 860 736 1414 25 152 25 573 0 724 -44 263 -119
499 -234 733 l-75 152 -788 0 -789 0 -20 -67 c-49 -168 -810 -2811 -816 -2833
-5 -22 0 -30 39 -58 151 -109 116 -345 -61 -408 -80 -28 -160 -11 -227 48
-104 91 -105 256 -3 345 40 35 135 68 171 59 22 -5 33 32 446 1461 232 807
425 1475 428 1485 4 17 46 18 794 20 l789 3 -62 90 c-283 411 -670 715 -1145
901 -139 54 -370 115 -534 139 -109 16 -442 28 -520 19z m-640 -1517 c59 -30
87 -117 56 -175 -8 -15 -170 -182 -360 -372 l-346 -345 354 -355 c374 -375
376 -378 362 -454 -12 -62 -88 -112 -155 -100 -31 5 -92 62 -444 413 -225 223
-415 418 -423 433 -18 35 -18 91 0 126 16 30 800 814 831 831 27 14 94 14 125
-2z m1737 -67 c15 -6 214 -196 441 -423 312 -312 415 -420 422 -446 20 -74 23
-71 -409 -504 -223 -225 -418 -415 -433 -423 -97 -51 -213 34 -193 143 6 33
51 83 363 395 l356 357 -356 358 c-278 279 -357 365 -363 390 -13 61 25 128
85 152 33 13 53 13 87 1z"/>
</g>
</svg>
